<svg xmlns="http://www.w3.org/2000/svg" width="62.066" height="66.288" viewBox="0 0 62.066 66.288">
  <defs>
    <style>
      .cls-1 {
        fill: #a1d0e2;
      }

      .cls-2 {
        fill: rgba(67,67,67,0.17);
      }

      .cls-3 {
        fill: #0075a3;
      }

      .cls-4 {
        fill: rgba(75,75,75,0.18);
      }

      .cls-5 {
        fill: #15c348;
      }

      .cls-6 {
        fill: rgba(96,96,96,0.2);
      }

      .cls-7 {
        fill: rgba(83,83,83,0.18);
      }

      .cls-8 {
        fill: #004d79;
      }

      .cls-9 {
        fill: rgba(57,57,57,0.43);
      }

      .cls-10, .cls-12 {
        fill: #fff;
      }

      .cls-11 {
        fill: none;
      }

      .cls-12 {
        stroke-linejoin: round;
      }

      .cls-13, .cls-14 {
        stroke: none;
      }

      .cls-14 {
        fill: #0d6d93;
      }
    </style>
  </defs>
  <g id="Group_83" data-name="Group 83" transform="translate(-881 -202.5)">
    <rect id="Rectangle_68" data-name="Rectangle 68" class="cls-1" width="14" height="24" transform="translate(893 240.5)"/>
    <rect id="Rectangle_106" data-name="Rectangle 106" class="cls-2" width="7" height="24" transform="translate(900 240.5)"/>
    <rect id="Rectangle_69" data-name="Rectangle 69" class="cls-3" width="14" height="46" transform="translate(911 218.5)"/>
    <rect id="Rectangle_107" data-name="Rectangle 107" class="cls-4" width="7" height="45" transform="translate(918 218.5)"/>
    <path id="Path_267" data-name="Path 267" class="cls-5" d="M0,0H14V36H0Z" transform="translate(929 228.5)"/>
    <path id="Path_286" data-name="Path 286" class="cls-6" d="M0,0H7V36.058H0Z" transform="translate(936 228.5)"/>
    <circle id="Ellipse_21" data-name="Ellipse 21" class="cls-1" cx="7" cy="7" r="7" transform="translate(898.5 202.5)"/>
    <path id="Path_285" data-name="Path 285" class="cls-7" d="M17.783.13a6.964,6.964,0,1,1,0,13.925C18.109,14.154,17.932.309,17.783.13Z" transform="translate(887.368 202.445)"/>
    <circle id="Ellipse_23" data-name="Ellipse 23" class="cls-8" cx="10" cy="10" r="10" transform="translate(881 216)"/>
    <path id="Path_284" data-name="Path 284" class="cls-9" d="M25.333,0A10.247,10.247,0,0,1,35.782,10.033,10.247,10.247,0,0,1,25.333,20.067C25.188,20.169,25.17.222,25.333,0Z" transform="translate(865.248 215.933)"/>
    <circle id="Ellipse_22" data-name="Ellipse 22" class="cls-10" cx="5.5" cy="5.5" r="5.5" transform="translate(900 204)"/>
    <circle id="Ellipse_24" data-name="Ellipse 24" class="cls-10" cx="8" cy="8" r="8" transform="translate(883 218)"/>
    <g id="Group_67" data-name="Group 67" transform="translate(882.463 202.357)">
      <rect id="Rectangle_78" data-name="Rectangle 78" class="cls-5" width="14.066" height="0.548" transform="translate(46.537 62.682)"/>
      <rect id="Rectangle_79" data-name="Rectangle 79" class="cls-5" width="14.066" height="1.096" transform="translate(46.537 63.778)"/>
      <rect id="Rectangle_80" data-name="Rectangle 80" class="cls-5" width="14.066" height="0.548" transform="translate(46.537 65.421)"/>
    </g>
    <g id="Group_70" data-name="Group 70" transform="translate(864.342 202.357)">
      <rect id="Rectangle_78-2" data-name="Rectangle 78" class="cls-3" width="14.066" height="0.548" transform="translate(46.537 62.682)"/>
      <rect id="Rectangle_79-2" data-name="Rectangle 79" class="cls-3" width="14.066" height="1.096" transform="translate(46.537 63.778)"/>
      <rect id="Rectangle_80-2" data-name="Rectangle 80" class="cls-3" width="14.066" height="0.548" transform="translate(46.537 65.421)"/>
    </g>
    <g id="Group_71" data-name="Group 71" transform="translate(846.342 202.357)">
      <rect id="Rectangle_78-3" data-name="Rectangle 78" class="cls-1" width="14.066" height="0.548" transform="translate(46.537 62.682)"/>
      <rect id="Rectangle_79-3" data-name="Rectangle 79" class="cls-1" width="14.066" height="1.096" transform="translate(46.537 63.778)"/>
      <rect id="Rectangle_80-3" data-name="Rectangle 80" class="cls-1" width="14.066" height="0.548" transform="translate(46.537 65.421)"/>
    </g>
    <g id="edit" transform="translate(882.775 260.981)">
      <g id="Path_293" data-name="Path 293" class="cls-11" transform="translate(0 1.155)">
        <path class="cls-13" d="M0,0H4.782l1.87,2.469V6.652H0Z"/>
        <path class="cls-14" d="M 0.9999985694885254 0.9999985694885254 L 0.9999985694885254 5.651918888092041 L 5.651918888092041 5.651918888092041 L 5.651918888092041 2.805134773254395 L 4.28487491607666 0.9999985694885254 L 0.9999985694885254 0.9999985694885254 M -1.430511474609375e-06 -1.430511474609375e-06 L 4.78195858001709 -1.430511474609375e-06 L 6.651918888092041 2.469218730926514 L 6.651918888092041 6.651918888092041 L -1.430511474609375e-06 6.651918888092041 L -1.430511474609375e-06 -1.430511474609375e-06 Z"/>
      </g>
      <rect id="Rectangle_134" data-name="Rectangle 134" class="cls-10" width="3" height="3" transform="translate(4.225 1.019)"/>
      <g id="Path_294" data-name="Path 294" class="cls-12" transform="translate(1.725 5.309) rotate(-47)">
        <path class="cls-13" d="M 6.586463451385498 0.7202358245849609 L 1.628505229949951 0.7202358245849609 L 1.348092555999756 0.6019133329391479 L 1.618446469306946 0.4999958276748657 L 6.586463451385498 0.4999958276748657 L 6.586463451385498 0.7202358245849609 Z"/>
        <path class="cls-14" d="M 1.52733325958252 -4.172325134277344e-06 L 7.086463451385498 -4.172325134277344e-06 L 7.086463451385498 1.220235824584961 L 1.52733325958252 1.220235824584961 L 3.337860107421875e-06 0.57576584815979 L 1.52733325958252 -4.172325134277344e-06 Z"/>
      </g>
    </g>
  </g>
</svg>
