<svg xmlns="http://www.w3.org/2000/svg" xmlns:xlink="http://www.w3.org/1999/xlink" viewBox="0 0 671.61 160.72"><defs><style>.cls-1{fill:none;}.cls-2{fill:#fff;}.cls-3{clip-path:url(#clip-path);}</style><clipPath id="clip-path"><path class="cls-1" d="M384.08,26.71a3.88,3.88,0,0,0-1.41,5,3.24,3.24,0,0,0,.2.36,4.08,4.08,0,0,0,.61.75,3.91,3.91,0,0,0,2.68,1.06,3.89,3.89,0,0,0,0-7.77,3.91,3.91,0,0,0-2.07.6"/></clipPath></defs><g id="Layer_2" data-name="Layer 2"><g id="Layer_3" data-name="Layer 3"><rect class="cls-1" width="671.61" height="160.72"/><path class="cls-2" d="M413,117.17a49.15,49.15,0,0,1-5.79-.35A48.06,48.06,0,0,1,385.92,29.3l.77,1.14a46.65,46.65,0,1,0,72.66,34.45l1.37-.12A48.08,48.08,0,0,1,413,117.17"/><path class="cls-2" d="M456.18,65.5a3.88,3.88,0,1,1,4.33,3.38,3.89,3.89,0,0,1-4.33-3.38"/><path class="cls-2" d="M388.23,33.28a3.88,3.88,0,1,0-5.36-1.21,3.88,3.88,0,0,0,5.36,1.21"/><path class="cls-2" d="M408.64,131.75c0,1.73-8.87,3.08-19.79,3s-19.76-1.52-19.75-3.26,8.87-3.08,19.79-3,19.76,1.52,19.75,3.26"/><path class="cls-2" d="M426,102.15l-.47.34-.34.25-.42.28a13,13,0,0,1-2.48,1.16c-.78.26-1.38.41-1.38.41l-.62.17c-.4.11-1,.25-1.69.37a34.56,34.56,0,0,1-5.27.48c-1.94,0-3.9,0-5.39,0l-2.57-.06-.13,0-.06,0a12.73,12.73,0,0,0-.83-4.59c-.72-1.73-3.39-3.71-6.32-5.44l-.06-.13-.06-.07-.13-.08-.15-.1-.14-.12a1.77,1.77,0,0,1-.36-.33l-.2-.23q-.07-.12-.15-.27a1.69,1.69,0,0,1,0-1.4,3.84,3.84,0,0,1,1.16-1.49,6.63,6.63,0,0,1,1.73-1l.11,0h0l.06,0,.25-.07.47-.15c.31-.1.58-.13.84-.19,1-.22,1.77-.3,1.77-.3l.55-.09,1.2-.18c.88-.12,1.74-.25,1.66-.25,1.45-.27,2.34-.62,0-.65-.69,0-1.53,0-2.2,0s-1.18,0-1.18,0-.75.07-1.91.29c-.29.07-.62.13-.94.22l-.48.14-.25.08-.12,0-.07,0,0,0h0l0,0a7.14,7.14,0,0,0-2.09,1.18,5.14,5.14,0,0,0-1.56,2,3.52,3.52,0,0,0-.18.61,2.74,2.74,0,0,0-.06.63,2.62,2.62,0,0,0,.07.57c-1.94-1-13.28-7-15.66-8.71A34.69,34.69,0,0,1,374,80.05,25.17,25.17,0,0,1,372.37,78l-.4-.61-.13-.22a20,20,0,0,1-1.67-3,22.14,22.14,0,0,1-1-3.07c-.17-.68-.29-1.32-.4-1.81a3.07,3.07,0,0,0-.26-1c-.09-.12-.18,0-.26.44a5.9,5.9,0,0,0-.09.92c0,.21,0,.43,0,.68s0,.52.05.82a15.88,15.88,0,0,0,.34,2.26l.3,1.13c.13.36.24.71.36,1l.36.89q.19.39.33.69c.09.19.17.35.23.45l.08.16.15.24c.09.16.23.39.42.68.38.58,1,1.37,1.7,2.28a36.15,36.15,0,0,0,6.27,5.78c2.5,1.85,20.72,10.64,23.49,15.63,2.94,5.31-9.76,19.65-16.81,29.24l10.82,0s8.79-16.29,9-25.07l.07,0,.11,0,2.52.06c1.47,0,3.42.09,5.38,0a36.6,36.6,0,0,0,5.36-.47,20.08,20.08,0,0,0,2.41-.55,15.21,15.21,0,0,0,2.21-.93,8.64,8.64,0,0,0,1.87-1.26,8,8,0,0,0,.88-.91,2.35,2.35,0,0,0,.33-.59c0-.09-.09-.07-.32.09"/><path class="cls-2" d="M403.33,85.93c-1.41-7.54,5.89-11.86,13.18-13-.52,6.06-6.14,13.79-13.18,13"/><path class="cls-2" d="M422.86,107.15c4.59,3.18,14.79,2.76,16-4-4.86.46-11.9,2.6-16,4"/><path class="cls-2" d="M368.54,76.32c-3.55,1.56-7.68-.6-8.9-4.56,3.35.37,7.34,1,8.8,4.34"/><path class="cls-2" d="M413.43,86.26c3.54,1.58,7.68-.56,8.92-4.52-3.35.37-7.35,1-8.83,4.3"/><path class="cls-2" d="M378.6,82.38c-3.13-4.14-3.81-11.42-.39-15.77-.26,3.64,7.92,15.09.39,15.77"/><path class="cls-2" d="M373.73,85.27c-3.16,1.92-7.77,1.65-7.08,7.72,3.17-2.89,7.77-1.65,7.08-7.72"/><path class="cls-2" d="M409.38,89.36c4.37-.22,7.26,2.71,7.72,7.08-3.64.22-6-4.89-7.72-7.08"/><path class="cls-2" d="M380.43,60a1.65,1.65,0,0,0-.42-.23,5.68,5.68,0,0,0-.61-.19,4.61,4.61,0,0,0-.62-.13,1.57,1.57,0,0,0-.48,0,.84.84,0,0,0-.33.15.79.79,0,0,0-.18.34.65.65,0,0,0,0,.39.69.69,0,0,0,.22.3,1.36,1.36,0,0,0,.42.23,6.1,6.1,0,0,0,.6.19,6.23,6.23,0,0,0,.62.14,1.48,1.48,0,0,0,.47,0,.59.59,0,0,0,.33-.14.7.7,0,0,0,.2-.35.65.65,0,0,0,0-.39.59.59,0,0,0-.21-.3m-.9-.89a2.62,2.62,0,0,1,1.3.65,1.09,1.09,0,0,1,.2,1,1.07,1.07,0,0,1-.69.8,2.69,2.69,0,0,1-1.44-.07,2.75,2.75,0,0,1-1.3-.66,1.21,1.21,0,0,1,.49-1.83,2.71,2.71,0,0,1,1.44.08"/><path class="cls-2" d="M382.24,56.84l-.68,1.83-.34-.13.26-.7L379.21,57l-.26.71-.31-.12a1.4,1.4,0,0,0,.09-.31.72.72,0,0,0,0-.28l-.08-.21a.39.39,0,0,0-.21-.16l.13-.35,3.05,1.12.25-.69Z"/><path class="cls-2" d="M382.71,54.13a1.61,1.61,0,0,0-.36-.31l-.56-.3a6,6,0,0,0-.59-.25,1.44,1.44,0,0,0-.47-.09.59.59,0,0,0-.35.08.81.81,0,0,0-.33.68.63.63,0,0,0,.16.34,1.33,1.33,0,0,0,.37.3c.16.1.35.2.55.3s.42.19.58.25a1.66,1.66,0,0,0,.46.1.6.6,0,0,0,.62-.39.67.67,0,0,0,.08-.38.57.57,0,0,0-.16-.33M382,53.08a2.62,2.62,0,0,1,1.15.89,1.09,1.09,0,0,1,0,1.05,1,1,0,0,1-.83.65,2.64,2.64,0,0,1-1.4-.34,2.68,2.68,0,0,1-1.15-.89,1.06,1.06,0,0,1,0-1,1,1,0,0,1,.83-.65,2.53,2.53,0,0,1,1.4.34"/><path class="cls-2" d="M385.08,51.4l-1,1.67-.31-.19.39-.65L382.08,51l-.39.65-.28-.18a2.57,2.57,0,0,0,.15-.29.85.85,0,0,0,.07-.26l0-.23-.18-.19.2-.32,2.78,1.68.38-.63Z"/><path class="cls-2" d="M386.07,48.81a1.59,1.59,0,0,0-.3-.36,4.8,4.8,0,0,0-.5-.41c-.19-.14-.37-.26-.53-.36a1.46,1.46,0,0,0-.44-.18.72.72,0,0,0-.36,0,.63.63,0,0,0-.3.25.7.7,0,0,0-.15.36.64.64,0,0,0,.09.36,1.57,1.57,0,0,0,.31.36,4.24,4.24,0,0,0,.49.41,6,6,0,0,0,.52.35,1.41,1.41,0,0,0,.43.18.66.66,0,0,0,.37,0,.8.8,0,0,0,.46-.61.61.61,0,0,0-.09-.36m-.5-1.16a2.56,2.56,0,0,1,1,1.09,1.08,1.08,0,0,1-.2,1,1,1,0,0,1-.94.48,3.43,3.43,0,0,1-2.26-1.69,1,1,0,0,1,.19-1,1,1,0,0,1,.94-.48,2.57,2.57,0,0,1,1.31.6"/><path class="cls-2" d="M388.91,46.58,387.6,48l-.27-.25.5-.56L386,45.61l-.5.55-.25-.22a1.37,1.37,0,0,0,.2-.26.83.83,0,0,0,.13-.24v-.23l-.14-.23.25-.28,2.42,2.18.49-.55Z"/><path class="cls-2" d="M390.35,44.23a1.5,1.5,0,0,0-.22-.41,5.06,5.06,0,0,0-.41-.49q-.25-.27-.45-.45a1.43,1.43,0,0,0-.4-.26.59.59,0,0,0-.36,0,.67.67,0,0,0-.34.18.69.69,0,0,0-.22.33.68.68,0,0,0,0,.37,1.56,1.56,0,0,0,.24.42c.11.15.25.31.4.48a4.73,4.73,0,0,0,.45.45,1.56,1.56,0,0,0,.39.26.76.76,0,0,0,.36.06.68.68,0,0,0,.35-.19.66.66,0,0,0,.22-.33.61.61,0,0,0,0-.37M390.08,43a2.66,2.66,0,0,1,.74,1.26,1,1,0,0,1-.39,1,1.05,1.05,0,0,1-1,.3,2.63,2.63,0,0,1-1.17-.84,2.67,2.67,0,0,1-.74-1.25,1.21,1.21,0,0,1,1.4-1.27,2.57,2.57,0,0,1,1.17.83"/><path class="cls-2" d="M392.79,42.27a1.52,1.52,0,0,0-.18-.43,5,5,0,0,0-.36-.53,6.17,6.17,0,0,0-.41-.49,1.87,1.87,0,0,0-.37-.3.68.68,0,0,0-.36-.08.7.7,0,0,0-.35.15.7.7,0,0,0-.25.3.66.66,0,0,0,0,.37,1.46,1.46,0,0,0,.19.44,6.25,6.25,0,0,0,.36.53,4.58,4.58,0,0,0,.4.48,1.59,1.59,0,0,0,.36.3.61.61,0,0,0,.36.09.7.7,0,0,0,.37-.16.67.67,0,0,0,.24-.3.58.58,0,0,0,0-.37M392.64,41a2.74,2.74,0,0,1,.62,1.32,1,1,0,0,1-.48.93,1.06,1.06,0,0,1-1,.21,2.61,2.61,0,0,1-1.09-.95,2.58,2.58,0,0,1-.62-1.31,1.06,1.06,0,0,1,.47-.94,1,1,0,0,1,1-.2,2.65,2.65,0,0,1,1.09.94"/><path class="cls-2" d="M396.94,39.7a1.36,1.36,0,0,0-.12-.46,5.91,5.91,0,0,0-.28-.58q-.18-.31-.33-.54a1.61,1.61,0,0,0-.33-.35.58.58,0,0,0-.33-.13.69.69,0,0,0-.38.09.67.67,0,0,0-.28.27.6.6,0,0,0-.07.36,1.57,1.57,0,0,0,.12.46c.08.18.17.37.28.57a5.37,5.37,0,0,0,.33.54,1.52,1.52,0,0,0,.31.35.61.61,0,0,0,.73,0,.65.65,0,0,0,.28-.26.62.62,0,0,0,.07-.36m0-1.27a2.62,2.62,0,0,1,.42,1.39,1.05,1.05,0,0,1-.61.85,1,1,0,0,1-1,0,2.56,2.56,0,0,1-.94-1.09,2.62,2.62,0,0,1-.42-1.39,1.19,1.19,0,0,1,1.66-.9,2.55,2.55,0,0,1,.94,1.09"/><path class="cls-2" d="M400.46,38.85l-1.79.77-.14-.34.68-.29-.95-2.22-.69.29-.13-.3a2,2,0,0,0,.29-.15,1.12,1.12,0,0,0,.22-.17l.1-.21a.61.61,0,0,0,0-.26l.34-.15,1.28,3,.68-.29Z"/><path class="cls-2" d="M402.74,37.33a1.55,1.55,0,0,0,0-.47,4.23,4.23,0,0,0-.17-.62c-.07-.23-.15-.43-.22-.6a1.52,1.52,0,0,0-.25-.4.66.66,0,0,0-.31-.2.64.64,0,0,0-.38,0,.66.66,0,0,0-.33.2.65.65,0,0,0-.14.35,1.37,1.37,0,0,0,0,.48c0,.19.1.39.17.61s.15.43.22.59a1.42,1.42,0,0,0,.24.4.63.63,0,0,0,.71.18.78.78,0,0,0,.33-.21.61.61,0,0,0,.13-.34m.27-1.24a2.61,2.61,0,0,1,.15,1.45,1.06,1.06,0,0,1-.76.72,1,1,0,0,1-1-.15,2.64,2.64,0,0,1-.72-1.25,2.79,2.79,0,0,1-.15-1.45,1.21,1.21,0,0,1,1.81-.57,2.69,2.69,0,0,1,.71,1.25"/><path class="cls-2" d="M405.79,36.57a1.46,1.46,0,0,0,0-.47,4.49,4.49,0,0,0-.1-.63,4.87,4.87,0,0,0-.17-.62,1.64,1.64,0,0,0-.21-.42.63.63,0,0,0-.29-.23.81.81,0,0,0-.73.16.65.65,0,0,0-.17.33,1.5,1.5,0,0,0,0,.48,5.8,5.8,0,0,0,.1.63c.06.24.11.44.16.61a2.06,2.06,0,0,0,.21.42.61.61,0,0,0,.28.23.67.67,0,0,0,.4,0,.68.68,0,0,0,.35-.17.58.58,0,0,0,.17-.33m.39-1.21a2.53,2.53,0,0,1,0,1.46,1.21,1.21,0,0,1-1.84.4,2.71,2.71,0,0,1-.6-1.32,2.59,2.59,0,0,1,0-1.45,1,1,0,0,1,.82-.65,1.07,1.07,0,0,1,1,.25,2.71,2.71,0,0,1,.59,1.31"/><path class="cls-2" d="M409.43,36.75l-1.94.24,0-.37.75-.09-.29-2.4-.75.09,0-.32.32-.07a.86.86,0,0,0,.25-.1l.16-.18a.47.47,0,0,0,0-.25l.37,0,.39,3.23.73-.09Z"/><path class="cls-2" d="M412,35.94a1.55,1.55,0,0,0,.11-.46c0-.18,0-.39,0-.64a5.6,5.6,0,0,0,0-.64,1.79,1.79,0,0,0-.13-.46.64.64,0,0,0-.24-.27.74.74,0,0,0-.38-.09.68.68,0,0,0-.37.11.57.57,0,0,0-.23.29,1.43,1.43,0,0,0-.1.47,6.22,6.22,0,0,0,0,.63,5,5,0,0,0,.05.63,1.48,1.48,0,0,0,.12.45.59.59,0,0,0,.62.37.63.63,0,0,0,.38-.1.59.59,0,0,0,.22-.29m.61-1.12a2.56,2.56,0,0,1-.27,1.44,1.22,1.22,0,0,1-1.89,0,2.75,2.75,0,0,1-.33-1.41,2.59,2.59,0,0,1,.27-1.42,1,1,0,0,1,.93-.49,1,1,0,0,1,1,.45,2.54,2.54,0,0,1,.33,1.39"/><path class="cls-2" d="M415.18,36.06a1.58,1.58,0,0,0,.15-.45c0-.17.05-.38.07-.63a4.7,4.7,0,0,0,0-.64,1.32,1.32,0,0,0-.08-.47.64.64,0,0,0-.21-.29.68.68,0,0,0-.37-.12.65.65,0,0,0-.38.07.59.59,0,0,0-.26.26,1.57,1.57,0,0,0-.14.46,5.51,5.51,0,0,0-.07.63,4.79,4.79,0,0,0,0,.63A1.3,1.3,0,0,0,414,36a.59.59,0,0,0,.59.43.65.65,0,0,0,.38-.07.55.55,0,0,0,.25-.27m.71-1.05a2.59,2.59,0,0,1-.4,1.4,1,1,0,0,1-1,.39,1,1,0,0,1-.91-.52,2.65,2.65,0,0,1-.21-1.43,2.71,2.71,0,0,1,.4-1.4,1.07,1.07,0,0,1,1-.39,1,1,0,0,1,.91.53,2.64,2.64,0,0,1,.2,1.42"/><path class="cls-2" d="M418.61,37.25l-1.92-.32.05-.36.75.12.39-2.38-.74-.12.05-.33a1.69,1.69,0,0,0,.33,0,1,1,0,0,0,.27,0l.2-.12a.49.49,0,0,0,.11-.24l.37.06-.53,3.21.73.12Z"/><path class="cls-2" d="M423,37.72a1.59,1.59,0,0,0,.25-.41c.07-.16.15-.36.23-.59a5.73,5.73,0,0,0,.16-.62,1.35,1.35,0,0,0,0-.48.61.61,0,0,0-.13-.33.78.78,0,0,0-.33-.21.76.76,0,0,0-.39,0,.59.59,0,0,0-.31.2,1.38,1.38,0,0,0-.25.41,4.92,4.92,0,0,0-.22.59,4.51,4.51,0,0,0-.17.61,1.26,1.26,0,0,0,0,.47.63.63,0,0,0,.12.34.76.76,0,0,0,.34.21.67.67,0,0,0,.39,0,.62.62,0,0,0,.31-.2m.94-.85a2.71,2.71,0,0,1-.72,1.26,1.08,1.08,0,0,1-1,.14,1,1,0,0,1-.76-.73,2.53,2.53,0,0,1,.15-1.43,2.63,2.63,0,0,1,.72-1.26,1.05,1.05,0,0,1,1-.15,1,1,0,0,1,.76.74,2.62,2.62,0,0,1-.15,1.43"/><path class="cls-2" d="M426.05,39.69l-1.79-.77.15-.34.68.3,1-2.22-.69-.29.13-.31.31.11a1,1,0,0,0,.27,0l.22-.08a.43.43,0,0,0,.17-.2l.35.15-1.29,3,.68.3Z"/><path class="cls-2" d="M428.72,40.3a1.61,1.61,0,0,0,.33-.35,5.37,5.37,0,0,0,.33-.54,5.86,5.86,0,0,0,.28-.57,1.57,1.57,0,0,0,.12-.46.6.6,0,0,0-.07-.36.71.71,0,0,0-.28-.26.64.64,0,0,0-.38-.1.58.58,0,0,0-.34.13,1.47,1.47,0,0,0-.33.36q-.17.24-.33.54c-.12.22-.21.41-.28.57a1.88,1.88,0,0,0-.12.45.72.72,0,0,0,.06.36.67.67,0,0,0,.3.27.59.59,0,0,0,.37.1.53.53,0,0,0,.34-.14m1.09-.65a2.67,2.67,0,0,1-.95,1.1,1.21,1.21,0,0,1-1.66-.92,2.79,2.79,0,0,1,.42-1.38,2.74,2.74,0,0,1,.95-1.1,1,1,0,0,1,1.05.06,1,1,0,0,1,.6.86,2.61,2.61,0,0,1-.41,1.38"/><path class="cls-2" d="M431.37,42a2.07,2.07,0,0,0,.36-.32c.11-.14.24-.31.38-.51a5.2,5.2,0,0,0,.34-.55,2,2,0,0,0,.16-.44.6.6,0,0,0,0-.36.62.62,0,0,0-.25-.29.74.74,0,0,0-.37-.14.6.6,0,0,0-.35.11,1.15,1.15,0,0,0-.36.32c-.12.15-.25.31-.38.5s-.25.39-.33.54a1.39,1.39,0,0,0-.16.44.66.66,0,0,0,0,.37.63.63,0,0,0,.27.3.66.66,0,0,0,.36.13.57.57,0,0,0,.35-.1m1.15-.55a2.66,2.66,0,0,1-1,1,1.2,1.2,0,0,1-1.56-1.07,2.6,2.6,0,0,1,.54-1.33,2.64,2.64,0,0,1,1.05-1,1.08,1.08,0,0,1,1,.16,1,1,0,0,1,.52.91,2.68,2.68,0,0,1-.54,1.34"/><path class="cls-2" d="M433.84,43.92a1.36,1.36,0,0,0,.39-.28,5.42,5.42,0,0,0,.42-.47,5.85,5.85,0,0,0,.39-.51,1.36,1.36,0,0,0,.2-.43.55.55,0,0,0,0-.36.67.67,0,0,0-.23-.32.65.65,0,0,0-.35-.16.54.54,0,0,0-.36.07,1.44,1.44,0,0,0-.39.28c-.13.14-.28.29-.42.47s-.29.36-.38.5a1.5,1.5,0,0,0-.2.43.56.56,0,0,0,0,.36.69.69,0,0,0,.23.33.73.73,0,0,0,.35.16.52.52,0,0,0,.36-.07m1.19-.44a2.65,2.65,0,0,1-1.14.91,1.21,1.21,0,0,1-1.45-1.21,2.64,2.64,0,0,1,.67-1.28,2.54,2.54,0,0,1,1.14-.9,1,1,0,0,1,1,.25,1,1,0,0,1,.43,1,2.58,2.58,0,0,1-.67,1.27"/><path class="cls-2" d="M435.93,46.88l-1.38-1.38.26-.26.53.53,1.71-1.71-.53-.53.23-.23a1.84,1.84,0,0,0,.25.21.57.57,0,0,0,.24.13l.23,0,.23-.12.26.26-2.29,2.3.52.52Z"/><path class="cls-2" d="M438.2,48.44a2,2,0,0,0,.42-.2,5.85,5.85,0,0,0,.51-.39,5.49,5.49,0,0,0,.48-.43,1.75,1.75,0,0,0,.28-.38.66.66,0,0,0,.07-.36.75.75,0,0,0-.17-.35.81.81,0,0,0-.31-.23.77.77,0,0,0-.37,0,2.13,2.13,0,0,0-.44.21c-.16.11-.32.24-.5.38a5.59,5.59,0,0,0-.47.42,1.85,1.85,0,0,0-.28.38.68.68,0,0,0-.08.36.79.79,0,0,0,.49.59.58.58,0,0,0,.37,0m1.25-.21a2.57,2.57,0,0,1-1.29.67,1,1,0,0,1-1-.43,1.05,1.05,0,0,1-.25-1,3.43,3.43,0,0,1,2.18-1.8,1.06,1.06,0,0,1,1,.44,1,1,0,0,1,.24,1,2.6,2.6,0,0,1-.89,1.13"/><path class="cls-2" d="M439.7,51.76l-1.09-1.62.3-.2.42.62,2-1.36-.42-.62.28-.18.2.25.21.18.22.06a.52.52,0,0,0,.25-.08l.21.31-2.68,1.82.41.61Z"/><path class="cls-2" d="M442.39,55.27a1.81,1.81,0,0,0,.47-.1,6,6,0,0,0,.58-.25l.57-.3a1.61,1.61,0,0,0,.36-.31.55.55,0,0,0,.15-.33.62.62,0,0,0-.08-.38.62.62,0,0,0-.24-.3.69.69,0,0,0-.36-.09,1.65,1.65,0,0,0-.47.11,4.48,4.48,0,0,0-.58.24,5.35,5.35,0,0,0-.56.3,1.37,1.37,0,0,0-.36.3.57.57,0,0,0-.16.33.64.64,0,0,0,.07.39.69.69,0,0,0,.25.3.69.69,0,0,0,.36.09m1.27.09a2.67,2.67,0,0,1-1.42.35,1.08,1.08,0,0,1-.82-.66,1.06,1.06,0,0,1,0-1A3.46,3.46,0,0,1,444,52.78a1,1,0,0,1,.82.65,1,1,0,0,1,0,1,2.57,2.57,0,0,1-1.13.88"/><path class="cls-2" d="M443.06,58.84,442.38,57l.35-.13.26.71,2.26-.84-.26-.7.31-.12a2,2,0,0,0,.14.3.69.69,0,0,0,.16.22l.2.11a.47.47,0,0,0,.26,0l.13.35-3,1.12.25.69Z"/><path class="cls-2" d="M444.45,61.19a1.87,1.87,0,0,0,.47,0c.18,0,.39-.07.63-.13a6.26,6.26,0,0,0,.61-.2,1.22,1.22,0,0,0,.41-.23.53.53,0,0,0,.21-.29.65.65,0,0,0,0-.39.66.66,0,0,0-.19-.34.56.56,0,0,0-.33-.15,1.31,1.31,0,0,0-.48,0,5.76,5.76,0,0,0-.62.13,5.24,5.24,0,0,0-.61.18,1.62,1.62,0,0,0-.41.23.61.61,0,0,0-.22.29.68.68,0,0,0,0,.4.74.74,0,0,0,.19.34.64.64,0,0,0,.34.16m1.22.33a2.54,2.54,0,0,1-1.45.07,1,1,0,0,1-.68-.8,1.06,1.06,0,0,1,.2-1,2.67,2.67,0,0,1,1.29-.65,2.73,2.73,0,0,1,1.45-.07,1.07,1.07,0,0,1,.69.8,1,1,0,0,1-.21,1,2.67,2.67,0,0,1-1.29.65"/><path class="cls-2" d="M444.42,64.81l-.31-1.92.36-.06.12.74,2.38-.39-.12-.74.33-.06a2.06,2.06,0,0,0,.07.32,1,1,0,0,0,.12.25l.18.15a.53.53,0,0,0,.26,0l.06.37-3.21.53.12.72Z"/><path class="cls-2" d="M445.35,67.39a2,2,0,0,0,.46.08c.18,0,.39,0,.64,0s.46,0,.64-.07a2,2,0,0,0,.45-.15.63.63,0,0,0,.26-.25.68.68,0,0,0,.07-.39.64.64,0,0,0-.12-.36.62.62,0,0,0-.3-.22,1.48,1.48,0,0,0-.47-.08c-.19,0-.41,0-.63,0s-.46,0-.63.07a1.49,1.49,0,0,0-.45.15.64.64,0,0,0-.27.24.67.67,0,0,0-.07.39.65.65,0,0,0,.12.37.62.62,0,0,0,.3.22m1.14.56a2.69,2.69,0,0,1-1.45-.21,1.06,1.06,0,0,1-.51-.91,1,1,0,0,1,.39-1,2.73,2.73,0,0,1,1.39-.4,2.67,2.67,0,0,1,1.44.21,1.2,1.2,0,0,1,.12,1.89,2.73,2.73,0,0,1-1.38.39"/><path class="cls-2" d="M444.64,71l.05-2h.37l0,.75,2.41.06,0-.75h.33a1.94,1.94,0,0,0,0,.33.58.58,0,0,0,.07.26l.14.18a.46.46,0,0,0,.25.08v.38L445,70.24l0,.74Z"/><path class="cls-2" d="M445.07,73.65a1.62,1.62,0,0,0,.44.17c.18,0,.39.08.63.11a5.33,5.33,0,0,0,.64,0,1.63,1.63,0,0,0,.47-.06.65.65,0,0,0,.31-.19.74.74,0,0,0,.14-.37.75.75,0,0,0-.05-.38.61.61,0,0,0-.26-.27,1.63,1.63,0,0,0-.45-.17l-.62-.1a5.6,5.6,0,0,0-.63-.05,1.73,1.73,0,0,0-.47.06.58.58,0,0,0-.31.19.66.66,0,0,0-.14.37.71.71,0,0,0,0,.39.72.72,0,0,0,.26.26m1,.76a2.49,2.49,0,0,1-1.37-.47,1.2,1.2,0,0,1,.23-1.87,3.47,3.47,0,0,1,2.81.34,1.21,1.21,0,0,1-.23,1.88,2.64,2.64,0,0,1-1.44.12"/><path class="cls-2" d="M444.49,76.76a1.64,1.64,0,0,0,.42.21c.17.06.37.11.62.17s.45.09.63.11a1.75,1.75,0,0,0,.47,0,.69.69,0,0,0,.33-.17.68.68,0,0,0,.17-.34.72.72,0,0,0,0-.39.63.63,0,0,0-.23-.29,1.57,1.57,0,0,0-.43-.21c-.19-.06-.39-.12-.61-.17l-.63-.11a1.46,1.46,0,0,0-.47,0,.63.63,0,0,0-.33.15.87.87,0,0,0-.18.36.72.72,0,0,0,0,.39.58.58,0,0,0,.23.29m.93.86a2.62,2.62,0,0,1-1.32-.6,1.21,1.21,0,0,1,.41-1.85,2.67,2.67,0,0,1,1.44,0,2.62,2.62,0,0,1,1.32.6,1.2,1.2,0,0,1-.41,1.85,2.68,2.68,0,0,1-1.44,0"/><path class="cls-2" d="M443,81.4a1.49,1.49,0,0,0,.39.27c.16.08.35.17.58.26l.61.2a1.64,1.64,0,0,0,.47.05.67.67,0,0,0,.35-.12.75.75,0,0,0,.22-.31.69.69,0,0,0,0-.39.61.61,0,0,0-.18-.32,1.16,1.16,0,0,0-.4-.27c-.17-.09-.36-.17-.57-.26s-.44-.15-.61-.2a1.48,1.48,0,0,0-.46,0,.58.58,0,0,0-.35.11.72.72,0,0,0-.23.32.81.81,0,0,0-.05.39.67.67,0,0,0,.19.32m.8,1a2.7,2.7,0,0,1-1.22-.79,1.21,1.21,0,0,1,.67-1.77,2.59,2.59,0,0,1,1.43.23,2.65,2.65,0,0,1,1.22.78,1.07,1.07,0,0,1,.09,1,1.05,1.05,0,0,1-.77.72,2.72,2.72,0,0,1-1.42-.22"/><path class="cls-2" d="M440.87,84.34l.87-1.75.33.16-.34.68,2.17,1.07.33-.67.29.14c0,.09-.08.19-.12.31a1.12,1.12,0,0,0,0,.27l.06.22a.47.47,0,0,0,.19.18l-.16.33-2.91-1.44-.33.66Z"/><path class="cls-2" d="M440.13,87a1.74,1.74,0,0,0,.33.34,6,6,0,0,0,.53.36,5.58,5.58,0,0,0,.56.31,1.22,1.22,0,0,0,.45.14.62.62,0,0,0,.36-.05.76.76,0,0,0,.39-.64.64.64,0,0,0-.12-.35,1.48,1.48,0,0,0-.33-.34c-.16-.12-.33-.24-.52-.36l-.55-.31a1.77,1.77,0,0,0-.45-.14.61.61,0,0,0-.36,0,.65.65,0,0,0-.29.28.7.7,0,0,0-.12.37.62.62,0,0,0,.12.35m.6,1.12a2.61,2.61,0,0,1-1.05-1,1.07,1.07,0,0,1,.11-1,1,1,0,0,1,.89-.56,3.43,3.43,0,0,1,2.4,1.49,1,1,0,0,1-.11,1,1,1,0,0,1-.89.56,2.57,2.57,0,0,1-1.35-.48"/><path class="cls-2" d="M438.3,89.52a1.44,1.44,0,0,0,.3.37,6.17,6.17,0,0,0,.49.41,5,5,0,0,0,.53.36,1.58,1.58,0,0,0,.43.19.65.65,0,0,0,.37,0,.67.67,0,0,0,.3-.24.7.7,0,0,0,.15-.36.72.72,0,0,0-.08-.36,1.59,1.59,0,0,0-.31-.37c-.14-.13-.3-.27-.48-.41s-.38-.27-.52-.36a1.72,1.72,0,0,0-.43-.18.66.66,0,0,0-.37,0,.64.64,0,0,0-.31.25.7.7,0,0,0-.15.35.53.53,0,0,0,.08.36m.49,1.17a2.67,2.67,0,0,1-1-1.1,1.06,1.06,0,0,1,.21-1,1,1,0,0,1,.94-.47,2.58,2.58,0,0,1,1.3.61,2.67,2.67,0,0,1,.95,1.1,1.19,1.19,0,0,1-1.15,1.5,2.58,2.58,0,0,1-1.3-.61"/><path class="cls-2" d="M435.42,91.75l1.32-1.44.27.25-.5.56,1.77,1.63.51-.55.24.22a2,2,0,0,0-.2.26.59.59,0,0,0-.12.24v.23l.13.23-.25.27-2.39-2.19-.5.54Z"/><path class="cls-2" d="M433.18,93.83l1.45-1.3.24.27-.55.5,1.61,1.79.56-.5.22.25a1.77,1.77,0,0,0-.23.24.74.74,0,0,0-.14.23l0,.23.11.23-.28.25L434,93.61l-.55.49Z"/><path class="cls-2" d="M430.75,95.69l1.56-1.16.22.3-.6.44,1.44,1.94.6-.45.2.27-.25.21-.16.22-.05.23a.45.45,0,0,0,.09.24l-.31.23-1.93-2.61L431,96Z"/><path class="cls-2" d="M428.12,97.34l1.67-1,.19.31-.64.39,1.25,2.07.64-.39.17.28-.26.19a.84.84,0,0,0-.19.2l-.07.22a.42.42,0,0,0,.07.25l-.33.2-1.68-2.78-.62.38Z"/><path class="cls-2" d="M29.81,83.71H49.68V87H29.81v22.32h-4V60.6h26v3.46h-22Z"/><path class="cls-2" d="M87.12,87.39v21.88H84.74l-1.29-4.17s-3.53,5.11-13.47,5.11c-9.43,0-15-4.75-15-12.89,0-7.7,5.48-12.89,13.76-12.89,9.93,0,14.4,6,14.4,6v-5c0-8.07-4.75-13.47-11.81-13.47-4.9,0-9.36,1.16-11.95,3.17v-3.6c2.09-1.73,6.77-2.73,12.53-2.73C81.07,68.74,87.12,76.22,87.12,87.39ZM59,97.32c0,6.19,4.32,9.87,11.66,9.87,7.49,0,12.53-3.68,12.53-9.15V93.72a19.32,19.32,0,0,0-13.75-6.26C62.06,87.46,59,91.49,59,97.32Z"/><path class="cls-2" d="M101,55.77a2.47,2.47,0,0,1,2.6,2.45,2.43,2.43,0,0,1-2.6,2.45,2.34,2.34,0,0,1-2.44-2.45A2.38,2.38,0,0,1,101,55.77Zm-1.94,53.5V69.67h4v39.6Z"/><path class="cls-2" d="M119.23,75.5s4.1-6.76,13.68-6.76v3.38c-7.27,0-12,4.46-13.54,8.28v28.87h-4V69.67h2.88Z"/><path class="cls-2" d="M167.54,109.27l-1.29-4.17s-4.4,5.11-13.11,5.11c-10.73,0-16.92-8.28-16.92-20.74s6.19-20.73,16.92-20.73a16.92,16.92,0,0,1,13.32,6.91l-.5-6v-13h4v52.56Zm-27.29-19.8c0,11,5,17.57,13.25,17.57S166,102.15,166,102.15V79.1s-4.11-7.2-12.46-7.2S140.25,77.45,140.25,89.47Z"/><path class="cls-2" d="M210.74,87.39v21.88h-2.38l-1.29-4.17s-3.53,5.11-13.47,5.11c-9.43,0-15-4.75-15-12.89,0-7.7,5.47-12.89,13.75-12.89,9.94,0,14.4,6,14.4,6v-5C206.78,77.3,202,71.9,195,71.9c-4.89,0-9.36,1.16-11.95,3.17v-3.6c2.09-1.73,6.77-2.73,12.53-2.73C204.69,68.74,210.74,76.22,210.74,87.39Zm-28.15,9.93c0,6.19,4.32,9.87,11.66,9.87,7.49,0,12.53-3.68,12.53-9.15V93.72A19.32,19.32,0,0,0,193,87.46C185.68,87.46,182.59,91.49,182.59,97.32Z"/><path class="cls-2" d="M238.68,72.62H228v36.65h-4V72.62h-7.2v-3h7.2v-7.2l4-1.87v9.07h10.66Z"/><path class="cls-2" d="M273.67,87.39v21.88h-2.38L270,105.1s-3.53,5.11-13.47,5.11c-9.43,0-15-4.75-15-12.89,0-7.7,5.48-12.89,13.76-12.89,9.93,0,14.4,6,14.4,6v-5c0-8.07-4.75-13.47-11.81-13.47-4.9,0-9.36,1.16-11.95,3.17v-3.6c2.08-1.73,6.77-2.73,12.53-2.73C267.62,68.74,273.67,76.22,273.67,87.39Zm-28.16,9.93c0,6.19,4.32,9.87,11.67,9.87s12.53-3.68,12.53-9.15V93.72A19.32,19.32,0,0,0,256,87.46C248.61,87.46,245.51,91.49,245.51,97.32Z"/><path class="cls-2" d="M289.07,107.76a2.42,2.42,0,0,1-2.59,2.45,2.35,2.35,0,0,1-2.45-2.45,2.39,2.39,0,0,1,2.45-2.45A2.46,2.46,0,0,1,289.07,107.76Z"/><path class="cls-2" d="M305.13,65.78v3.89h10.66v2.88H305.13v36.72h-4V72.55H294V69.67h7.2v-3c0-6.91,3.53-10.95,9.58-10.95,5.25,0,6.91,2,6.91,2V61.1a9.64,9.64,0,0,0-6.27-2.16C307.43,58.94,305.13,61.46,305.13,65.78Z"/><path class="cls-2" d="M327.59,55.77a2.47,2.47,0,0,1,2.6,2.45,2.43,2.43,0,0,1-2.6,2.45,2.34,2.34,0,0,1-2.44-2.45A2.38,2.38,0,0,1,327.59,55.77Zm-1.94,53.5V69.67h4v39.6Z"/><path class="cls-2" d="M498.19,98.29l-2.88,9.51h-8.06l15.91-48.68h8.64l15.91,48.68h-8.06l-2.88-9.51Zm16.85-6-7.42-24.63-.14-1.3-.14,1.3-7.42,24.63Z"/><path class="cls-2" d="M548,107.8h-6.48L523.76,59.12h8.07l12.74,40.11.15,1.37.14-1.37,12.75-40.11h8.06Z"/><path class="cls-2" d="M572.67,98.29l-2.88,9.51h-8.07l15.92-48.68h8.64l15.91,48.68h-8.07l-2.87-9.51Zm16.85-6L582.1,67.69l-.14-1.3-.15,1.3L574.4,92.32Z"/><path class="cls-2" d="M615.64,98.29l-2.88,9.51h-8.07L620.6,59.12h8.65l15.91,48.68h-8.07l-2.88-9.51Zm16.85-6-7.42-24.63-.15-1.3-.14,1.3-7.42,24.63Z"/></g></g></svg>