<svg xmlns="http://www.w3.org/2000/svg" width="156" height="155" viewBox="0 0 156 155">
  <g id="AVAA" transform="translate(0.339 0.256)">
    <g id="Group_42" data-name="Group 42" transform="translate(-0.055 31.308)">
      <g id="Group_34" data-name="Group 34" transform="translate(0 0)">
        <rect id="Rectangle_124" data-name="Rectangle 124" width="110" height="30" transform="translate(-0.284 0.436)" fill="#0075a3"/>
        <rect id="Rectangle_125" data-name="Rectangle 125" width="55" height="30" transform="translate(54.716 0.436)" fill="#004d79"/>
      </g>
      <g id="Group_37" data-name="Group 37" transform="translate(5.261 30.512)">
        <rect id="Rectangle_124-2" data-name="Rectangle 124" width="101" height="10" transform="translate(0.455 -0.076)" fill="#012336"/>
      </g>
      <g id="Group_38" data-name="Group 38" transform="translate(5.261 69.441)">
        <rect id="Rectangle_124-3" data-name="Rectangle 124" width="101" height="8" transform="translate(0.455 -0.005)" fill="#012336"/>
      </g>
      <g id="Group_35" data-name="Group 35" transform="translate(0 39.981)">
        <rect id="Rectangle_124-4" data-name="Rectangle 124" width="110" height="29" transform="translate(-0.284 0.455)" fill="#0075a3"/>
        <rect id="Rectangle_125-2" data-name="Rectangle 125" width="55" height="29" transform="translate(54.716 0.455)" fill="#004d79"/>
      </g>
      <g id="Group_36" data-name="Group 36" transform="translate(0 77.858)">
        <rect id="Rectangle_124-5" data-name="Rectangle 124" width="110" height="31" transform="translate(-0.284 -0.422)" fill="#0075a3"/>
        <rect id="Rectangle_125-3" data-name="Rectangle 125" width="55" height="31" transform="translate(54.716 -0.422)" fill="#004d79"/>
      </g>
      <g id="Group_40" data-name="Group 40" transform="translate(7.417 49.45)">
        <rect id="Rectangle_126" data-name="Rectangle 126" width="11" height="11" transform="translate(0.299 -0.014)" fill="#a1d0e2"/>
        <rect id="Rectangle_127" data-name="Rectangle 127" width="11" height="11" transform="translate(15.299 -0.014)" fill="#a1d0e2"/>
        <rect id="Rectangle_128" data-name="Rectangle 128" width="11" height="11" transform="translate(30.299 -0.014)" fill="#a1d0e2"/>
      </g>
      <g id="Group_46" data-name="Group 46" transform="translate(7.417 88.379)">
        <rect id="Rectangle_126-2" data-name="Rectangle 126" width="11" height="11" transform="translate(0.299 0.057)" fill="#a1d0e2"/>
        <rect id="Rectangle_127-2" data-name="Rectangle 127" width="11" height="11" transform="translate(15.299 0.057)" fill="#a1d0e2" opacity="0.8"/>
        <rect id="Rectangle_128-2" data-name="Rectangle 128" width="11" height="11" transform="translate(30.299 0.057)" fill="#15c348"/>
      </g>
      <g id="Group_45" data-name="Group 45" transform="translate(8.417 10.521)">
        <rect id="Rectangle_126-3" data-name="Rectangle 126" width="11" height="11" transform="translate(-0.701 -0.085)" fill="#15c348"/>
        <rect id="Rectangle_127-3" data-name="Rectangle 127" width="11" height="11" transform="translate(14.299 -0.085)" fill="#a1d0e2"/>
        <rect id="Rectangle_128-3" data-name="Rectangle 128" width="11" height="11" transform="translate(29.299 -0.085)" fill="#a1d0e2"/>
      </g>
      <rect id="Rectangle_129" data-name="Rectangle 129" width="36" height="12" transform="translate(65.716 10.436)" fill="#012336"/>
      <rect id="Rectangle_130" data-name="Rectangle 130" width="36" height="8" transform="translate(65.716 49.436)" fill="#012336"/>
      <rect id="Rectangle_131" data-name="Rectangle 131" width="36" height="6" transform="translate(65.716 90.436)" fill="#012336"/>
    </g>
    <g id="Group_43" data-name="Group 43" transform="translate(65.177 84.967)">
      <g id="Group_31" data-name="Group 31" transform="translate(0 0)">
        <g id="Rectangle_116" data-name="Rectangle 116" transform="translate(0.483 -0.223)" fill="#fff" stroke="#11a53c" stroke-width="2">
          <rect width="90" height="70" stroke="none"/>
          <rect x="1" y="1" width="88" height="68" fill="none"/>
        </g>
        <g id="Rectangle_117" data-name="Rectangle 117" transform="translate(0.483 -0.223)" fill="none" stroke="#11a53c" stroke-width="2">
          <rect width="90" height="18" stroke="none"/>
          <rect x="1" y="1" width="88" height="16" fill="none"/>
        </g>
        <text id="_10101" data-name="10101" transform="translate(6.483 36.777)" fill="#15c348" font-size="14" font-family="Lato-Regular, Lato"><tspan x="0" y="0">10101</tspan></text>
        <text id="_10101-2" data-name="10101" transform="translate(7.483 52.777)" fill="#15c348" font-size="9" font-family="Lato-Regular, Lato"><tspan x="0" y="0">10101</tspan></text>
        <g id="Group_32" data-name="Group 32" transform="translate(55.763 28.408)">
          <line id="Line_7" data-name="Line 7" x2="27.5" transform="translate(-0.779 0.87)" fill="none" stroke="#11a53c" stroke-width="2"/>
          <line id="Line_8" data-name="Line 8" x2="27.5" transform="translate(-0.779 4.87)" fill="none" stroke="#11a53c" stroke-width="2"/>
          <line id="Line_9" data-name="Line 9" x2="27.5" transform="translate(-0.779 8.87)" fill="none" stroke="#11a53c" stroke-width="2"/>
          <line id="Line_10" data-name="Line 10" x2="27.5" transform="translate(-0.779 12.87)" fill="none" stroke="#11a53c" stroke-width="2"/>
        </g>
        <g id="Group_33" data-name="Group 33" transform="translate(66.285 47.242)">
          <rect id="Rectangle_118" data-name="Rectangle 118" width="5" height="5" transform="translate(-2.801 -0.464)" fill="#0075a3"/>
          <rect id="Rectangle_119" data-name="Rectangle 119" width="5" height="5" transform="translate(4.199 -0.464)" fill="#0075a3"/>
          <rect id="Rectangle_120" data-name="Rectangle 120" width="5" height="5" transform="translate(11.199 -0.464)" fill="#0075a3"/>
        </g>
        <g id="Group_44" data-name="Group 44" transform="translate(6.313 6.313)">
          <rect id="Rectangle_122" data-name="Rectangle 122" width="4" height="4" transform="translate(0.171 0.465)" fill="#0075a3"/>
          <rect id="Rectangle_121" data-name="Rectangle 121" width="4" height="4" transform="translate(6.171 0.465)" fill="#0075a3"/>
          <rect id="Rectangle_123" data-name="Rectangle 123" width="4" height="4" transform="translate(12.171 0.465)" fill="#0075a3"/>
        </g>
      </g>
    </g>
    <g id="Group_47" data-name="Group 47" transform="translate(12.571 -0.256)">
      <path id="Union_4" data-name="Union 4" d="M44.875,9H0V4H44.875V0L55,6.5,44.875,13Z" transform="translate(19.089)" fill="#01659f"/>
      <path id="Union_5" data-name="Union 5" d="M72.743,8.667H0V4.333H72.743V0L83,6.5,72.743,13Z" transform="translate(83.089 25) rotate(180)" fill="#048dc3"/>
    </g>
  </g>
</svg>
