<svg xmlns="http://www.w3.org/2000/svg" width="76.001" height="76" viewBox="0 0 76.001 76">
  <g id="avaa-small" transform="translate(0.339 0.256)">
    <g id="Group_42" data-name="Group 42" transform="translate(-0.339 15.334)">
      <g id="Group_34" data-name="Group 34" transform="translate(0 0)">
        <rect id="Rectangle_124" data-name="Rectangle 124" width="54" height="14" transform="translate(0 0.41)" fill="#0075a3"/>
        <rect id="Rectangle_125" data-name="Rectangle 125" width="27" height="14" transform="translate(27 0.41)" fill="#004d79"/>
      </g>
      <g id="Group_37" data-name="Group 37" transform="translate(2.923 14.615)">
        <rect id="Rectangle_124-2" data-name="Rectangle 124" width="49" height="5" transform="translate(0.077 -0.205)" fill="#012336"/>
      </g>
      <g id="Group_38" data-name="Group 38" transform="translate(2.923 33.616)">
        <rect id="Rectangle_124-3" data-name="Rectangle 124" width="49" height="4" transform="translate(0.077 -0.205)" fill="#012336"/>
      </g>
      <g id="Group_35" data-name="Group 35" transform="translate(0 19.487)">
        <rect id="Rectangle_124-4" data-name="Rectangle 124" width="54" height="14" transform="translate(0 -0.077)" fill="#0075a3"/>
        <rect id="Rectangle_125-2" data-name="Rectangle 125" width="27" height="14" transform="translate(27 -0.077)" fill="#004d79"/>
      </g>
      <g id="Group_36" data-name="Group 36" transform="translate(0 37.513)">
        <rect id="Rectangle_124-5" data-name="Rectangle 124" width="54" height="15" transform="translate(0 -0.103)" fill="#0075a3"/>
        <rect id="Rectangle_125-3" data-name="Rectangle 125" width="27" height="15" transform="translate(27 -0.103)" fill="#004d79"/>
      </g>
      <g id="Group_40" data-name="Group 40" transform="translate(3.898 23.872)">
        <rect id="Rectangle_126" data-name="Rectangle 126" width="5" height="5" transform="translate(0.103 -0.462)" fill="#a1d0e2"/>
        <rect id="Rectangle_127" data-name="Rectangle 127" width="5" height="5" transform="translate(7.103 -0.462)" fill="#a1d0e2"/>
        <rect id="Rectangle_128" data-name="Rectangle 128" width="5" height="5" transform="translate(14.103 -0.462)" fill="#a1d0e2"/>
      </g>
      <g id="Group_46" data-name="Group 46" transform="translate(3.898 42.872)">
        <rect id="Rectangle_126-2" data-name="Rectangle 126" width="5" height="5" transform="translate(0.103 -0.462)" fill="#a1d0e2"/>
        <rect id="Rectangle_127-2" data-name="Rectangle 127" width="5" height="5" transform="translate(7.103 -0.462)" fill="#a1d0e2" opacity="0.8"/>
        <rect id="Rectangle_128-2" data-name="Rectangle 128" width="5" height="5" transform="translate(14.103 -0.462)" fill="#15c348"/>
      </g>
      <g id="Group_45" data-name="Group 45" transform="translate(3.898 4.872)">
        <rect id="Rectangle_126-3" data-name="Rectangle 126" width="5" height="5" transform="translate(0.103 0.538)" fill="#15c348"/>
        <rect id="Rectangle_127-3" data-name="Rectangle 127" width="5" height="5" transform="translate(7.103 0.538)" fill="#a1d0e2"/>
        <rect id="Rectangle_128-3" data-name="Rectangle 128" width="5" height="5" transform="translate(14.103 0.538)" fill="#a1d0e2"/>
      </g>
      <rect id="Rectangle_129" data-name="Rectangle 129" width="18" height="6" transform="translate(32 4.41)" fill="#012336"/>
      <rect id="Rectangle_130" data-name="Rectangle 130" width="18" height="4" transform="translate(32 23.41)" fill="#012336"/>
      <rect id="Rectangle_131" data-name="Rectangle 131" width="18" height="3" transform="translate(32 43.41)" fill="#012336"/>
    </g>
    <g id="Group_43" data-name="Group 43" transform="translate(31.815 41.154)">
      <g id="Group_31" data-name="Group 31" transform="translate(0 0)">
        <g id="Rectangle_116" data-name="Rectangle 116" transform="translate(-0.153 -0.41)" fill="#fff" stroke="#11a53c" stroke-width="1">
          <rect width="44" height="35" stroke="none"/>
          <rect x="0.5" y="0.5" width="43" height="34" fill="none"/>
        </g>
        <g id="Rectangle_117" data-name="Rectangle 117" transform="translate(-0.153 -0.41)" fill="none" stroke="#11a53c" stroke-width="1">
          <rect width="44" height="9" stroke="none"/>
          <rect x="0.5" y="0.5" width="43" height="8" fill="none"/>
        </g>
        <text id="_10101" data-name="10101" transform="translate(2.847 18.59)" fill="#15c348" font-size="7" font-family="Lato-Regular, Lato"><tspan x="0" y="0">10101</tspan></text>
        <text id="_10101-2" data-name="10101" transform="translate(3.847 25.59)" fill="#15c348" font-size="4" font-family="Lato-Regular, Lato"><tspan x="0" y="0">10101</tspan></text>
        <g id="Group_32" data-name="Group 32" transform="translate(26.552 14.372)">
          <line id="Line_7" data-name="Line 7" x2="13.295" transform="translate(0 0)" fill="none" stroke="#11a53c" stroke-width="1"/>
          <line id="Line_8" data-name="Line 8" x2="13.295" transform="translate(0 1.949)" fill="none" stroke="#11a53c" stroke-width="1"/>
          <line id="Line_9" data-name="Line 9" x2="13.295" transform="translate(0 3.897)" fill="none" stroke="#11a53c" stroke-width="1"/>
          <line id="Line_10" data-name="Line 10" x2="13.295" transform="translate(0 5.846)" fill="none" stroke="#11a53c" stroke-width="1"/>
        </g>
        <g id="Group_33" data-name="Group 33" transform="translate(30.693 22.923)">
          <rect id="Rectangle_118" data-name="Rectangle 118" width="2" height="2" transform="translate(1.153 -0.334)" fill="#0075a3"/>
          <rect id="Rectangle_119" data-name="Rectangle 119" width="2" height="2" transform="translate(4.153 -0.334)" fill="#0075a3"/>
          <rect id="Rectangle_120" data-name="Rectangle 120" width="2" height="2" transform="translate(7.153 -0.334)" fill="#0075a3"/>
        </g>
        <g id="Group_44" data-name="Group 44" transform="translate(2.923 2.91)">
          <rect id="Rectangle_122" data-name="Rectangle 122" width="2" height="2" transform="translate(-0.077 0.179)" fill="#0075a3"/>
          <rect id="Rectangle_121" data-name="Rectangle 121" width="2" height="2" transform="translate(2.923 0.179)" fill="#0075a3"/>
          <rect id="Rectangle_123" data-name="Rectangle 123" width="2" height="2" transform="translate(5.923 0.179)" fill="#0075a3"/>
        </g>
      </g>
    </g>
    <g id="Group_47" data-name="Group 47" transform="translate(5.994 -0.256)">
      <path id="Union_4" data-name="Union 4" d="M22.029,4.154H0V1.846H22.029V0L27,3,22.029,6Z" transform="translate(9.667)" fill="#01659f"/>
      <path id="Union_5" data-name="Union 5" d="M35.057,4H0V2H35.057V0L40,3,35.057,6Z" transform="translate(40.667 12) rotate(180)" fill="#048dc3"/>
    </g>
  </g>
</svg>
