<svg xmlns="http://www.w3.org/2000/svg" xmlns:xlink="http://www.w3.org/1999/xlink" viewBox="0 0 157.14 160.72"><defs><style>.cls-1{fill:none;}.cls-2{fill:#fff;}.cls-3{clip-path:url(#clip-path);}</style><clipPath id="clip-path"><path class="cls-1" d="M51.26,26.63a3.89,3.89,0,0,0-1.41,5,2.71,2.71,0,0,0,.21.37,3.39,3.39,0,0,0,.61.74,3.85,3.85,0,0,0,2.67,1.07,3.89,3.89,0,1,0-2.08-7.17"/></clipPath></defs><title>tree_logo_nega</title><g id="Layer_2" data-name="Layer 2"><g id="Layer_3" data-name="Layer 3"><rect class="cls-1" width="157.14" height="160.72"/><path class="cls-2" d="M80.13,117.08a48.84,48.84,0,0,1-5.78-.34A48.06,48.06,0,0,1,53.1,29.22l.78,1.14a46.65,46.65,0,1,0,72.66,34.45l1.37-.13a48.76,48.76,0,0,1-.15,10,48.08,48.08,0,0,1-47.63,42.37"/><path class="cls-2" d="M123.37,65.41a3.88,3.88,0,1,1,4.33,3.38,3.88,3.88,0,0,1-4.33-3.38"/><path class="cls-2" d="M55.41,33.2A3.89,3.89,0,1,0,50.06,32a3.89,3.89,0,0,0,5.35,1.21"/><path class="cls-2" d="M75.83,131.66c0,1.74-8.87,3.09-19.79,3s-19.76-1.52-19.75-3.25,8.87-3.08,19.79-3,19.76,1.52,19.75,3.25"/><path class="cls-2" d="M93.2,102.06c-.12.08-.26.21-.47.35l-.33.25-.43.27a11.55,11.55,0,0,1-2.47,1.16c-.78.27-1.38.41-1.38.41l-.63.18c-.4.1-1,.25-1.68.37a36.15,36.15,0,0,1-5.27.48c-1.94,0-3.9,0-5.39,0l-2.57-.06-.13,0-.06,0a13,13,0,0,0-.83-4.59c-.72-1.72-3.4-3.7-6.33-5.44l0-.13-.06-.06L65,95.19l-.14-.09L64.7,95a1.77,1.77,0,0,1-.36-.33l-.2-.23c0-.09-.1-.18-.16-.27a1.69,1.69,0,0,1,0-1.4,3.86,3.86,0,0,1,1.16-1.5,6.28,6.28,0,0,1,1.73-1l.11,0h0l.06,0,.24-.07.48-.14c.31-.1.57-.13.83-.2,1-.21,1.78-.29,1.78-.29l.55-.09,1.2-.19c.87-.12,1.74-.24,1.66-.25,1.45-.27,2.33-.61,0-.64-.69,0-1.53,0-2.2,0s-1.17,0-1.17,0-.76.07-1.92.3l-.93.21-.48.15-.25.07-.13,0-.06,0h-.1a7.7,7.7,0,0,0-2.09,1.19,5.11,5.11,0,0,0-1.55,2,4.31,4.31,0,0,0-.19.61,3.36,3.36,0,0,0-.06.63,3.72,3.72,0,0,0,.08.57c-1.95-1-13.29-7-15.66-8.72A34.29,34.29,0,0,1,41.15,80a23.09,23.09,0,0,1-1.59-2.07c-.17-.27-.31-.47-.4-.61s-.13-.22-.13-.22a19.43,19.43,0,0,1-1.67-3,20.74,20.74,0,0,1-1-3.06c-.18-.69-.29-1.32-.4-1.82a3.28,3.28,0,0,0-.26-1c-.09-.12-.18,0-.26.43a7.31,7.31,0,0,0-.1.93c0,.2,0,.43,0,.67s0,.53.05.83a14.57,14.57,0,0,0,.34,2.26c.09.38.19.76.3,1.13s.23.71.36,1l.36.89q.18.41.33.69a4.1,4.1,0,0,0,.22.46l.09.16.14.24c.1.16.24.39.43.67a24.71,24.71,0,0,0,1.7,2.28,36.18,36.18,0,0,0,6.27,5.79c2.49,1.85,20.71,10.64,23.48,15.63,2.95,5.31-9.75,19.64-16.81,29.24l10.82.05s8.8-16.29,9-25.07l.07,0,.11,0,2.51.06c1.48,0,3.43.1,5.38,0a38.19,38.19,0,0,0,5.37-.47,20.08,20.08,0,0,0,2.41-.55,15.73,15.73,0,0,0,2.21-.93,8.93,8.93,0,0,0,1.86-1.26,6.63,6.63,0,0,0,.88-.92,2.35,2.35,0,0,0,.34-.58c0-.1-.09-.08-.33.08"/><path class="cls-2" d="M70.52,85.84c-1.41-7.53,5.89-11.85,13.18-13-.52,6.06-6.15,13.79-13.18,13"/><path class="cls-2" d="M90.05,107.07c4.59,3.18,14.78,2.75,16-4-4.86.45-11.91,2.6-16,4"/><path class="cls-2" d="M35.73,76.23c-3.56,1.57-7.69-.59-8.91-4.56,3.35.38,7.34,1,8.81,4.34"/><path class="cls-2" d="M80.61,86.18c3.55,1.58,7.69-.56,8.92-4.53-3.35.37-7.34,1-8.82,4.31"/><path class="cls-2" d="M45.79,82.3C42.66,78.15,42,70.87,45.4,66.52c-.27,3.64,7.91,15.09.39,15.78"/><path class="cls-2" d="M40.92,85.18c-3.17,1.93-7.78,1.65-7.08,7.73,3.17-2.9,7.77-1.66,7.08-7.73"/><path class="cls-2" d="M76.56,89.27c4.37-.21,7.27,2.72,7.73,7.09-3.64.22-6-4.89-7.73-7.09"/><path class="cls-2" d="M47.61,59.89a1.46,1.46,0,0,0-.41-.23,4.46,4.46,0,0,0-.61-.19,5.31,5.31,0,0,0-.63-.14,1.48,1.48,0,0,0-.47,0,.59.59,0,0,0-.33.15.66.66,0,0,0-.19.34.65.65,0,0,0,0,.39.59.59,0,0,0,.21.3,1.69,1.69,0,0,0,.43.23,6.1,6.1,0,0,0,.6.19,5.36,5.36,0,0,0,.62.13,1.43,1.43,0,0,0,.46,0,.63.63,0,0,0,.34-.15.69.69,0,0,0,.2-.35.7.7,0,0,0,0-.38.54.54,0,0,0-.22-.3m-.89-.9a2.66,2.66,0,0,1,1.29.66,1.06,1.06,0,0,1,.2,1,1,1,0,0,1-.68.79,2.63,2.63,0,0,1-1.45-.07,2.58,2.58,0,0,1-1.29-.65,1.21,1.21,0,0,1,.49-1.83,2.69,2.69,0,0,1,1.44.07"/><path class="cls-2" d="M49.42,56.76l-.67,1.83-.35-.13.26-.7-2.26-.84-.26.7-.31-.11c0-.1.06-.2.09-.32a.9.9,0,0,0,0-.27l-.08-.22a.49.49,0,0,0-.21-.15l.13-.36,3,1.13.26-.69Z"/><path class="cls-2" d="M49.9,54a2,2,0,0,0-.37-.3c-.15-.09-.33-.19-.56-.3a4.48,4.48,0,0,0-.59-.25,1.42,1.42,0,0,0-.46-.1.65.65,0,0,0-.35.09.63.63,0,0,0-.25.3.67.67,0,0,0-.08.38.61.61,0,0,0,.15.33,2.07,2.07,0,0,0,.37.31c.17.1.35.2.56.3s.42.19.58.25a1.29,1.29,0,0,0,.46.09.6.6,0,0,0,.36-.07.74.74,0,0,0,.26-.31.69.69,0,0,0,.07-.38A.61.61,0,0,0,49.9,54m-.71-1a2.61,2.61,0,0,1,1.15.9,1.21,1.21,0,0,1-.83,1.7,2.67,2.67,0,0,1-1.4-.35A2.6,2.6,0,0,1,47,54.35a1,1,0,0,1,0-1.05,1,1,0,0,1,.83-.65,2.74,2.74,0,0,1,1.4.34"/><path class="cls-2" d="M52.27,51.31l-1,1.67-.32-.19.39-.64L49.27,50.9l-.39.64-.28-.17a2,2,0,0,0,.14-.29,1,1,0,0,0,.08-.26l0-.23-.18-.2.19-.32,2.78,1.68.38-.63Z"/><path class="cls-2" d="M53.25,48.73a1.63,1.63,0,0,0-.3-.37,6.3,6.3,0,0,0-.49-.4,5,5,0,0,0-.53-.36,1.57,1.57,0,0,0-.44-.18.62.62,0,0,0-.36,0,.67.67,0,0,0-.3.24.73.73,0,0,0-.15.36.61.61,0,0,0,.09.36,1.24,1.24,0,0,0,.31.37,5.08,5.08,0,0,0,.48.4c.21.15.38.27.53.36a2,2,0,0,0,.43.18.63.63,0,0,0,.36,0,.67.67,0,0,0,.32-.25.77.77,0,0,0,.15-.36.7.7,0,0,0-.1-.36m-.5-1.17a2.58,2.58,0,0,1,1,1.1,1,1,0,0,1-.19,1,1.06,1.06,0,0,1-.94.49,2.61,2.61,0,0,1-1.31-.6,2.78,2.78,0,0,1-1-1.09A1.2,1.2,0,0,1,51.45,47a2.69,2.69,0,0,1,1.3.6"/><path class="cls-2" d="M56.1,46.5l-1.31,1.44-.27-.24.5-.56-1.79-1.62-.51.56-.24-.22a1.79,1.79,0,0,0,.2-.26.66.66,0,0,0,.12-.24v-.24l-.14-.22.25-.28,2.41,2.17.49-.54Z"/><path class="cls-2" d="M57.54,44.15a2.14,2.14,0,0,0-.22-.42l-.41-.49a6.27,6.27,0,0,0-.46-.45,1.88,1.88,0,0,0-.39-.26.6.6,0,0,0-.71.14.69.69,0,0,0-.21.32.68.68,0,0,0,0,.37,1.48,1.48,0,0,0,.23.42,5.6,5.6,0,0,0,.41.49c.17.18.32.33.44.44a1.47,1.47,0,0,0,.39.26A.62.62,0,0,0,57,45a.64.64,0,0,0,.35-.19.69.69,0,0,0,.21-.32.59.59,0,0,0,0-.37m-.27-1.24A2.66,2.66,0,0,1,58,44.17a1.08,1.08,0,0,1-.39,1,1.06,1.06,0,0,1-1,.3,3.52,3.52,0,0,1-1.91-2.09,1.06,1.06,0,0,1,.38-1,1,1,0,0,1,1-.29,2.68,2.68,0,0,1,1.17.83"/><path class="cls-2" d="M60,42.19a1.36,1.36,0,0,0-.19-.44c-.09-.15-.21-.32-.36-.52a3.64,3.64,0,0,0-.41-.49,1.25,1.25,0,0,0-.37-.3.66.66,0,0,0-.35-.08.62.62,0,0,0-.36.15.67.67,0,0,0-.24.3.65.65,0,0,0,0,.37,1.52,1.52,0,0,0,.2.44c.1.17.22.34.35.52s.29.37.41.49a1.39,1.39,0,0,0,.36.29.69.69,0,0,0,.35.1.67.67,0,0,0,.37-.16.63.63,0,0,0,.25-.3.58.58,0,0,0,0-.37m-.15-1.26a2.61,2.61,0,0,1,.61,1.32,1.19,1.19,0,0,1-1.51,1.13,3.42,3.42,0,0,1-1.7-2.26,1,1,0,0,1,.47-.93,1,1,0,0,1,1-.2,2.71,2.71,0,0,1,1.09.94"/><path class="cls-2" d="M64.13,39.61a2.42,2.42,0,0,0-.12-.46c-.07-.16-.16-.35-.28-.57a4.9,4.9,0,0,0-.34-.55,1.32,1.32,0,0,0-.32-.34.67.67,0,0,0-.34-.14.69.69,0,0,0-.37.1.68.68,0,0,0-.29.26.74.74,0,0,0-.07.37,1.41,1.41,0,0,0,.13.46,4.8,4.8,0,0,0,.27.57c.13.22.23.4.33.54a1.31,1.31,0,0,0,.32.34.61.61,0,0,0,.34.15.66.66,0,0,0,.38-.1.64.64,0,0,0,.29-.27.6.6,0,0,0,.07-.36m0-1.27a2.56,2.56,0,0,1,.41,1.4,1.06,1.06,0,0,1-.6.85,1,1,0,0,1-1,0,2.61,2.61,0,0,1-1-1.1,2.66,2.66,0,0,1-.41-1.38,1.2,1.2,0,0,1,1.66-.91,2.69,2.69,0,0,1,.94,1.09"/><path class="cls-2" d="M67.65,38.77l-1.79.77-.15-.34.69-.3-1-2.22-.69.3-.13-.3.29-.15a.8.8,0,0,0,.21-.18l.1-.21a.41.41,0,0,0,0-.26l.35-.14,1.28,3,.67-.29Z"/><path class="cls-2" d="M69.93,37.25a2.06,2.06,0,0,0,0-.48,5.93,5.93,0,0,0-.17-.61,4.91,4.91,0,0,0-.22-.6,1.38,1.38,0,0,0-.26-.4A.64.64,0,0,0,69,35a.67.67,0,0,0-.39,0,.68.68,0,0,0-.33.2.61.61,0,0,0-.13.34,1.37,1.37,0,0,0,0,.48c0,.19.1.4.16.61s.15.44.22.6a1.38,1.38,0,0,0,.25.39.59.59,0,0,0,.3.21.69.69,0,0,0,.4,0,.67.67,0,0,0,.33-.21.55.55,0,0,0,.14-.34M70.2,36a2.58,2.58,0,0,1,.14,1.45,1.05,1.05,0,0,1-.75.72,1.07,1.07,0,0,1-1-.15,2.63,2.63,0,0,1-.71-1.26,2.57,2.57,0,0,1-.15-1.44,1,1,0,0,1,.76-.72,1,1,0,0,1,1,.15A2.56,2.56,0,0,1,70.2,36"/><path class="cls-2" d="M73,36.49A1.49,1.49,0,0,0,73,36a4.83,4.83,0,0,0-.11-.62,5,5,0,0,0-.16-.62,1.72,1.72,0,0,0-.21-.43.66.66,0,0,0-.29-.22.64.64,0,0,0-.39,0,.72.72,0,0,0-.35.17.74.74,0,0,0-.17.33,1.53,1.53,0,0,0,0,.48,5.29,5.29,0,0,0,.1.62,5.75,5.75,0,0,0,.16.61,1.38,1.38,0,0,0,.21.42.64.64,0,0,0,.28.24.67.67,0,0,0,.4,0,.68.68,0,0,0,.35-.17.57.57,0,0,0,.16-.33m.39-1.21a2.64,2.64,0,0,1,0,1.46,1.21,1.21,0,0,1-1.85.39,2.62,2.62,0,0,1-.59-1.31,2.61,2.61,0,0,1,0-1.45,1,1,0,0,1,.83-.65,1,1,0,0,1,1,.25,2.62,2.62,0,0,1,.59,1.31"/><path class="cls-2" d="M76.62,36.67l-1.94.23,0-.36.74-.09-.29-2.4-.74.09,0-.33.32-.06a.81.81,0,0,0,.26-.11l.15-.17a.42.42,0,0,0,0-.26l.38,0,.38,3.22.73-.08Z"/><path class="cls-2" d="M79.23,35.86a1.63,1.63,0,0,0,.1-.47,4.23,4.23,0,0,0,0-.64,5.37,5.37,0,0,0,0-.63,1.39,1.39,0,0,0-.13-.46.67.67,0,0,0-.24-.28.68.68,0,0,0-.37-.08.71.71,0,0,0-.38.1.85.85,0,0,0-.23.29,1.84,1.84,0,0,0-.1.47c0,.2,0,.41,0,.64a5.27,5.27,0,0,0,0,.63,1.25,1.25,0,0,0,.13.45.58.58,0,0,0,.23.28.75.75,0,0,0,.39.09.74.74,0,0,0,.38-.1.72.72,0,0,0,.22-.29m.61-1.12a2.51,2.51,0,0,1-.27,1.43,1.2,1.2,0,0,1-1.89,0,2.64,2.64,0,0,1-.33-1.4,2.64,2.64,0,0,1,.26-1.43,1.21,1.21,0,0,1,1.9,0,2.77,2.77,0,0,1,.33,1.4"/><path class="cls-2" d="M82.37,36a1.83,1.83,0,0,0,.14-.45,4.84,4.84,0,0,0,.08-.64,4.54,4.54,0,0,0,0-.63,1.53,1.53,0,0,0-.08-.47.68.68,0,0,0-.21-.3.71.71,0,0,0-.37-.12.8.8,0,0,0-.39.07.73.73,0,0,0-.25.27,1.91,1.91,0,0,0-.15.46c0,.19-.05.4-.07.63a4.57,4.57,0,0,0,0,.63,1.34,1.34,0,0,0,.08.46.59.59,0,0,0,.2.3.64.64,0,0,0,.38.13.68.68,0,0,0,.39-.07.66.66,0,0,0,.25-.27m.71-1a2.71,2.71,0,0,1-.4,1.4,1,1,0,0,1-1,.39,1.07,1.07,0,0,1-.92-.53,2.64,2.64,0,0,1-.2-1.43,2.58,2.58,0,0,1,.4-1.39,1.2,1.2,0,0,1,1.89.13,2.78,2.78,0,0,1,.2,1.43"/><path class="cls-2" d="M85.8,37.17l-1.93-.32.06-.36.74.12.39-2.38-.74-.13.06-.32a1.66,1.66,0,0,0,.32,0,1,1,0,0,0,.28,0l.19-.13a.46.46,0,0,0,.12-.23l.37.06-.53,3.2.73.12Z"/><path class="cls-2" d="M90.2,37.63a1.52,1.52,0,0,0,.25-.4,4.91,4.91,0,0,0,.22-.6,5.93,5.93,0,0,0,.17-.61,2.06,2.06,0,0,0,0-.48.65.65,0,0,0-.14-.34A.81.81,0,0,0,90,35a.62.62,0,0,0-.31.2,1.71,1.71,0,0,0-.26.41c-.07.18-.15.38-.22.59s-.13.45-.16.61a1.57,1.57,0,0,0,0,.47.77.77,0,0,0,.13.35.71.71,0,0,0,.34.21.75.75,0,0,0,.39,0,.54.54,0,0,0,.31-.2m.94-.85a2.62,2.62,0,0,1-.73,1.27,1.06,1.06,0,0,1-1,.14,1,1,0,0,1-.76-.73A2.57,2.57,0,0,1,88.77,36a2.51,2.51,0,0,1,.72-1.25,1.2,1.2,0,0,1,1.8.58,2.71,2.71,0,0,1-.15,1.43"/><path class="cls-2" d="M93.24,39.61l-1.79-.77.14-.34.69.3,1-2.22-.69-.3.13-.3.31.11a.69.69,0,0,0,.27,0l.22-.07a.58.58,0,0,0,.17-.2L94,36l-1.28,3,.67.29Z"/><path class="cls-2" d="M95.91,40.22a1.57,1.57,0,0,0,.32-.35,4.69,4.69,0,0,0,.34-.54c.11-.22.21-.41.28-.58a1.39,1.39,0,0,0,.11-.46.67.67,0,0,0-.06-.35.7.7,0,0,0-.29-.27.79.79,0,0,0-.37-.1.7.7,0,0,0-.35.14,1.68,1.68,0,0,0-.32.36,4.91,4.91,0,0,0-.33.53,5.79,5.79,0,0,0-.28.57,1.37,1.37,0,0,0-.12.45.74.74,0,0,0,.06.37.81.81,0,0,0,.67.37.59.59,0,0,0,.34-.14M97,39.56a2.66,2.66,0,0,1-1,1.11,1.08,1.08,0,0,1-1-.06,1,1,0,0,1-.61-.86,3.5,3.5,0,0,1,1.37-2.48,1.2,1.2,0,0,1,1.65.92A2.6,2.6,0,0,1,97,39.56"/><path class="cls-2" d="M98.56,41.91a1.42,1.42,0,0,0,.35-.31q.18-.21.39-.51a5.3,5.3,0,0,0,.33-.55,1.29,1.29,0,0,0,.16-.45.55.55,0,0,0,0-.36.77.77,0,0,0-.26-.29.69.69,0,0,0-.36-.13.62.62,0,0,0-.36.1,1.5,1.5,0,0,0-.35.33,4.34,4.34,0,0,0-.38.5,4.93,4.93,0,0,0-.34.54,1.56,1.56,0,0,0-.16.44.62.62,0,0,0,0,.36.66.66,0,0,0,.26.3.74.74,0,0,0,.37.14.6.6,0,0,0,.35-.11m1.14-.55a2.57,2.57,0,0,1-1,1,1.06,1.06,0,0,1-1-.16,1.05,1.05,0,0,1-.53-.91A3.47,3.47,0,0,1,98.69,39a1.05,1.05,0,0,1,1,.15,1.07,1.07,0,0,1,.52.92,2.59,2.59,0,0,1-.55,1.33"/><path class="cls-2" d="M101,43.84a1.54,1.54,0,0,0,.38-.28c.13-.13.27-.28.43-.47a5.85,5.85,0,0,0,.39-.51,2.29,2.29,0,0,0,.2-.43.77.77,0,0,0,0-.37.81.81,0,0,0-.58-.48.66.66,0,0,0-.36.07,1.77,1.77,0,0,0-.39.29,5,5,0,0,0-.42.47c-.16.19-.29.36-.39.5a1.6,1.6,0,0,0-.2.42.67.67,0,0,0,0,.37.69.69,0,0,0,.24.32.61.61,0,0,0,.35.17.6.6,0,0,0,.36-.07m1.19-.44a2.54,2.54,0,0,1-1.14.9,1.2,1.2,0,0,1-1.45-1.21,2.6,2.6,0,0,1,.67-1.28,2.67,2.67,0,0,1,1.13-.9,1.07,1.07,0,0,1,1,.25,1,1,0,0,1,.44,1,2.69,2.69,0,0,1-.67,1.28"/><path class="cls-2" d="M103.11,46.79l-1.38-1.38.26-.26.54.53,1.7-1.7-.53-.53.24-.24a1.7,1.7,0,0,0,.24.22,1,1,0,0,0,.24.13l.24,0,.22-.13.27.27L102.85,46l.52.52Z"/><path class="cls-2" d="M105.38,48.36a1.55,1.55,0,0,0,.43-.21,5.54,5.54,0,0,0,.51-.38,5.35,5.35,0,0,0,.47-.43,1.47,1.47,0,0,0,.28-.38.61.61,0,0,0,.07-.36.76.76,0,0,0-.48-.58.58.58,0,0,0-.37,0,1.4,1.4,0,0,0-.43.21,5.09,5.09,0,0,0-.5.38,4.34,4.34,0,0,0-.47.42,1.38,1.38,0,0,0-.28.38.59.59,0,0,0-.08.36.73.73,0,0,0,.17.36.72.72,0,0,0,.31.23.59.59,0,0,0,.37,0m1.25-.21a2.62,2.62,0,0,1-1.29.67,1.21,1.21,0,0,1-1.2-1.46,2.67,2.67,0,0,1,.9-1.13,2.62,2.62,0,0,1,1.29-.67,1.2,1.2,0,0,1,1.2,1.46,2.61,2.61,0,0,1-.9,1.13"/><path class="cls-2" d="M106.89,51.67l-1.09-1.61.3-.21.42.62,2-1.35-.42-.62.27-.19.21.26.21.18.22.06a.52.52,0,0,0,.25-.08l.21.31-2.69,1.82.41.61Z"/><path class="cls-2" d="M109.58,55.18a1.69,1.69,0,0,0,.46-.09c.17-.06.37-.15.59-.25a5.4,5.4,0,0,0,.56-.31,1.46,1.46,0,0,0,.37-.3.81.81,0,0,0,.15-.33.67.67,0,0,0-.69-.77,1.65,1.65,0,0,0-.47.1l-.58.25c-.23.11-.41.21-.56.3a1.31,1.31,0,0,0-.36.3.65.65,0,0,0-.16.32.68.68,0,0,0,.08.4.84.84,0,0,0,.25.3.6.6,0,0,0,.36.08m1.26.1a2.6,2.6,0,0,1-1.41.34,1.07,1.07,0,0,1-.82-.65,1,1,0,0,1,0-1,2.66,2.66,0,0,1,1.15-.88,2.61,2.61,0,0,1,1.41-.35,1.07,1.07,0,0,1,.82.65,1.05,1.05,0,0,1,0,1.06,2.62,2.62,0,0,1-1.14.88"/><path class="cls-2" d="M110.24,58.76l-.67-1.83.34-.13.26.7,2.27-.83-.26-.71.31-.11a2.48,2.48,0,0,0,.13.3,1.14,1.14,0,0,0,.16.22l.21.11a.48.48,0,0,0,.26,0l.13.36-3,1.12.26.69Z"/><path class="cls-2" d="M111.63,61.1a1.56,1.56,0,0,0,.48,0,3.64,3.64,0,0,0,.62-.13,4.46,4.46,0,0,0,.61-.19,1.65,1.65,0,0,0,.42-.23.69.69,0,0,0,.21-.3.61.61,0,0,0,0-.38.66.66,0,0,0-.19-.34.72.72,0,0,0-.34-.16,1.57,1.57,0,0,0-.48,0l-.62.13-.6.19a1.46,1.46,0,0,0-.41.23.61.61,0,0,0-.22.29.68.68,0,0,0,0,.4.66.66,0,0,0,.19.34.63.63,0,0,0,.33.15m1.23.34a2.77,2.77,0,0,1-1.46.07,1,1,0,0,1-.67-.8,1,1,0,0,1,.2-1,2.67,2.67,0,0,1,1.29-.65,2.63,2.63,0,0,1,1.45-.07,1.2,1.2,0,0,1,.47,1.83,2.63,2.63,0,0,1-1.28.65"/><path class="cls-2" d="M111.61,64.73l-.32-1.93.37-.06.12.74,2.38-.39-.12-.74.32-.05c0,.1,0,.21.08.32a.83.83,0,0,0,.12.25l.18.15a.52.52,0,0,0,.26,0l.06.37-3.21.52.12.73Z"/><path class="cls-2" d="M112.53,67.3a1.64,1.64,0,0,0,.47.09,4.89,4.89,0,0,0,.64,0,5.21,5.21,0,0,0,.64-.07,1.49,1.49,0,0,0,.45-.15.63.63,0,0,0,.26-.25.65.65,0,0,0,.07-.38.71.71,0,0,0-.12-.37.68.68,0,0,0-.3-.21,1.26,1.26,0,0,0-.48-.08,4.5,4.5,0,0,0-.63,0c-.25,0-.46,0-.63.07a1.89,1.89,0,0,0-.44.14.55.55,0,0,0-.27.25.67.67,0,0,0-.08.39.68.68,0,0,0,.12.37.55.55,0,0,0,.3.21m1.14.56a2.59,2.59,0,0,1-1.44-.2,1.2,1.2,0,0,1-.12-1.89,2.59,2.59,0,0,1,1.39-.39,2.63,2.63,0,0,1,1.43.2,1.06,1.06,0,0,1,.53.91,1.05,1.05,0,0,1-.4,1,2.65,2.65,0,0,1-1.39.39"/><path class="cls-2" d="M111.83,70.88l0-1.95h.36l0,.75,2.42.07,0-.75H115c0,.1,0,.21,0,.32a1,1,0,0,0,.07.27l.15.18a.53.53,0,0,0,.25.08v.37l-3.25-.08,0,.73Z"/><path class="cls-2" d="M112.26,73.57a1.62,1.62,0,0,0,.44.17,6,6,0,0,0,.63.1,5.42,5.42,0,0,0,.64,0,1.63,1.63,0,0,0,.47-.06.67.67,0,0,0,.31-.2.73.73,0,0,0,.13-.36.7.7,0,0,0,0-.39.62.62,0,0,0-.25-.26,1.37,1.37,0,0,0-.45-.17c-.19,0-.4-.08-.63-.11s-.45,0-.62,0a1.73,1.73,0,0,0-.47.06.61.61,0,0,0-.31.19.69.69,0,0,0-.15.38.66.66,0,0,0,0,.38.61.61,0,0,0,.26.27m1,.76a2.64,2.64,0,0,1-1.38-.47,1.07,1.07,0,0,1-.33-1,1,1,0,0,1,.57-.89,2.58,2.58,0,0,1,1.43-.12,2.56,2.56,0,0,1,1.38.47,1,1,0,0,1,.34,1,1,1,0,0,1-.58.88,2.59,2.59,0,0,1-1.43.13"/><path class="cls-2" d="M111.67,76.68a1.91,1.91,0,0,0,.43.21,4.81,4.81,0,0,0,.61.16,4.67,4.67,0,0,0,.63.11,1.48,1.48,0,0,0,.48,0,.57.57,0,0,0,.32-.16.68.68,0,0,0,.17-.35.64.64,0,0,0,0-.39.62.62,0,0,0-.23-.29,1.32,1.32,0,0,0-.43-.21,5.92,5.92,0,0,0-.61-.16,4.83,4.83,0,0,0-.62-.11,1.46,1.46,0,0,0-.47,0,.73.73,0,0,0-.33.16.76.76,0,0,0-.18.36.72.72,0,0,0,0,.39.63.63,0,0,0,.23.29m.94.85a2.5,2.5,0,0,1-1.33-.6,1.06,1.06,0,0,1-.24-1,1,1,0,0,1,.65-.82,2.61,2.61,0,0,1,1.45,0,2.71,2.71,0,0,1,1.32.6,1,1,0,0,1,.24,1,1,1,0,0,1-.65.82,2.58,2.58,0,0,1-1.44,0"/><path class="cls-2" d="M110.19,81.32a1.92,1.92,0,0,0,.39.27c.16.08.36.16.59.25a4.28,4.28,0,0,0,.61.2,1.35,1.35,0,0,0,.47.06.63.63,0,0,0,.34-.12.72.72,0,0,0,.23-.32.74.74,0,0,0,0-.38.64.64,0,0,0-.18-.33,1.72,1.72,0,0,0-.4-.27c-.17-.08-.36-.17-.58-.25s-.43-.15-.6-.2a1.51,1.51,0,0,0-.46,0,.57.57,0,0,0-.58.43.68.68,0,0,0,0,.39.61.61,0,0,0,.18.32m.8,1a2.6,2.6,0,0,1-1.22-.79,1.06,1.06,0,0,1-.09-1,1,1,0,0,1,.77-.72,3.42,3.42,0,0,1,2.64,1,1.19,1.19,0,0,1-.67,1.76A2.56,2.56,0,0,1,111,82.3"/><path class="cls-2" d="M108.06,84.26l.86-1.75.33.16-.33.67,2.16,1.07.34-.67.29.15q-.06.14-.12.3a.6.6,0,0,0,0,.27l.06.23a.46.46,0,0,0,.19.17l-.17.34-2.91-1.44-.32.66Z"/><path class="cls-2" d="M107.32,86.88a1.5,1.5,0,0,0,.33.34c.14.11.31.23.52.37s.4.23.56.3a1.69,1.69,0,0,0,.45.15.69.69,0,0,0,.36-.05.66.66,0,0,0,.28-.27.7.7,0,0,0,.12-.37.59.59,0,0,0-.12-.35,1.21,1.21,0,0,0-.34-.34,4.68,4.68,0,0,0-.52-.36,4.76,4.76,0,0,0-.55-.31,1.6,1.6,0,0,0-.44-.14.65.65,0,0,0-.37,0,.84.84,0,0,0-.4.65.59.59,0,0,0,.12.34m.6,1.12a2.6,2.6,0,0,1-1-1,1.06,1.06,0,0,1,.11-1,1,1,0,0,1,.88-.56,2.65,2.65,0,0,1,1.36.49,2.68,2.68,0,0,1,1,1,1.2,1.2,0,0,1-1,1.6,2.69,2.69,0,0,1-1.35-.49"/><path class="cls-2" d="M105.49,89.44a1.63,1.63,0,0,0,.3.37,4.77,4.77,0,0,0,.49.41c.19.15.37.26.52.36a1.7,1.7,0,0,0,.44.18.62.62,0,0,0,.36,0,.75.75,0,0,0,.31-.24.73.73,0,0,0,.15-.36.61.61,0,0,0-.09-.36,1.35,1.35,0,0,0-.3-.37,4.24,4.24,0,0,0-.49-.41l-.51-.36a1.37,1.37,0,0,0-.44-.18.55.55,0,0,0-.36,0,.65.65,0,0,0-.31.25.64.64,0,0,0-.16.36.61.61,0,0,0,.09.36m.49,1.17a2.67,2.67,0,0,1-1-1.1,1.05,1.05,0,0,1,.21-1,1.06,1.06,0,0,1,.93-.48,3.51,3.51,0,0,1,2.26,1.72,1.06,1.06,0,0,1-.21,1,1,1,0,0,1-.94.47,2.63,2.63,0,0,1-1.3-.61"/><path class="cls-2" d="M102.61,91.66l1.32-1.43.27.25-.51.55,1.78,1.64.51-.56.24.23a1.69,1.69,0,0,0-.2.25.86.86,0,0,0-.13.25v.23l.13.22-.25.28-2.39-2.2-.5.54Z"/><path class="cls-2" d="M100.37,93.75l1.44-1.31.25.27-.56.51L103.12,95l.56-.5.22.24a2.66,2.66,0,0,0-.23.24,1.45,1.45,0,0,0-.15.23l0,.23.11.24-.28.25-2.17-2.41-.55.49Z"/><path class="cls-2" d="M97.94,95.61l1.56-1.16.22.29-.6.45,1.44,1.94.6-.45.2.27-.25.21-.17.22,0,.22a.45.45,0,0,0,.09.25l-.3.22-1.93-2.6-.6.44Z"/><path class="cls-2" d="M95.31,97.25l1.67-1,.19.31-.64.39L97.78,99l.64-.39.17.29a1.48,1.48,0,0,0-.27.19.86.86,0,0,0-.19.2l-.07.22a.53.53,0,0,0,.07.25l-.32.2-1.68-2.78-.63.38Z"/></g></g></svg>