<?xml version="1.0" encoding="utf-8"?>
<!-- Generator: Adobe Illustrator 21.0.2, SVG Export Plug-In . SVG Version: 6.00 Build 0)  -->
<svg version="1.1" id="Layer_1" xmlns="http://www.w3.org/2000/svg" xmlns:xlink="http://www.w3.org/1999/xlink" x="0px" y="0px"
	 viewBox="0 0 271.4 138" style="enable-background:new 0 0 271.4 138;" xml:space="preserve">
<style type="text/css">
	.st0{fill:#8B1A52;}
	.st1{fill:none;stroke:#FFFFFF;stroke-width:7;}
	.st2{fill:#FFFFFF;}
</style>
<rect class="st0" width="271.4" height="138"/>
<circle class="st1" cx="194.2" cy="73.9" r="40"/>
<polyline class="st0" points="181,100.2 181,49.1 133.2,49.1 133.2,100.2 "/>
<path class="st2" d="M176.3,82.2c0-4.3,2.9-6.4,8.7-6.4h6.2v9.1c-2.4,2-5.2,2.8-8.3,2.8C178.4,87.7,176.3,85.7,176.3,82.2
	 M199.7,86.1V69c0-9.4-4.6-13.4-15.1-13.4c-3.9,0-8.1,0.6-12.5,1.7v5.9c5.1-1.1,8.5-1.4,10.9-1.4c6,0,8.4,2.1,8.4,7v2h-8
	c-10,0-15.4,4-15.4,11.9c0,6.9,4.5,10.9,12.3,10.9c5.3,0,9.3-1.8,11.8-4.5h0.1c0.8,3.3,3.2,4.5,6.5,4.5c2,0,3.6-0.4,5.1-0.9v-4.8
	c-0.5,0.1-1.1,0.1-1.6,0.1C200.6,88.2,199.7,87.6,199.7,86.1 M165.3,92.9l-16-22.1l13.9-14.4H154l-14.1,14.8V40.4h-8.4v52.5h8.4v-13
	l4-3.9l12,16.9H165.3z M97.7,82.2c0-4.3,2.9-6.4,8.7-6.4h6.2v9.1c-2.4,2-5.2,2.8-8.3,2.8C99.7,87.7,97.7,85.7,97.7,82.2 M121,86.1
	V69c0-9.4-4.6-13.4-15.1-13.4c-3.9,0-8.1,0.6-12.5,1.7v5.9c5.1-1.1,8.5-1.4,10.9-1.4c6,0,8.4,2.1,8.4,7v2h-8c-10,0-15.4,4-15.4,11.9
	c0,6.9,4.5,10.9,12.3,10.9c5.3,0,9.3-1.8,11.8-4.5h0.1c0.8,3.3,3.2,4.5,6.5,4.5c2,0,3.6-0.4,5.1-0.9v-4.8c-0.5,0.1-1.1,0.1-1.6,0.1
	C121.9,88.2,121,87.6,121,86.1 M74.4,92.9h8.7V44.1h-8.7v20.3H51.1V44.1h-8.7v48.9h8.7V71.4h23.3V92.9z"/>
<path class="st2" d="M218,58.8c7.8,0,14.2-6.3,14.2-14.2c0-7.8-6.3-14.2-14.2-14.2c-7.8,0-14.2,6.3-14.2,14.2
	C203.9,52.4,210.2,58.8,218,58.8"/>
</svg>
